<svg width="93" height="68" viewBox="0 0 93 68" fill="none" xmlns="http://www.w3.org/2000/svg">
<path d="M42.5837 67.3337H23.8337C17.5142 67.3337 12.1149 65.1462 7.63574 60.7712C3.15658 56.3962 0.916992 51.0489 0.916992 44.7295C0.916992 39.3128 2.54894 34.4864 5.81283 30.2503C9.07671 26.0142 13.3475 23.3059 18.6253 22.1253C20.3614 15.7364 23.8337 10.5628 29.042 6.60449C34.2503 2.64616 40.1531 0.666992 46.7503 0.666992C54.8753 0.666992 61.7677 3.49685 67.4274 9.15658C73.0871 14.8163 75.917 21.7087 75.917 29.8337C80.7087 30.3892 84.6844 32.4552 87.8441 36.0316C91.0038 39.608 92.5837 43.792 92.5837 48.5837C92.5837 53.792 90.7607 58.2191 87.1149 61.8649C83.4691 65.5107 79.042 67.3337 73.8337 67.3337H50.917V37.542L57.5837 44.0003L63.417 38.167L46.7503 21.5003L30.0837 38.167L35.917 44.0003L42.5837 37.542V67.3337Z" fill="#CACACA"/>
</svg>
