<svg width="660" height="547" viewBox="0 0 660 547" fill="none" xmlns="http://www.w3.org/2000/svg">
<path d="M0.415039 272.986C0.415039 122.434 122.462 0.386719 273.015 0.386719H585.656V545.586H273.015C122.462 545.586 0.415039 423.539 0.415039 272.986Z" fill="#292D34"/>
<rect x="492.527" y="0.386719" width="130.673" height="42.4096" rx="21.2048" fill="#292D34"/>
<rect x="639.019" y="0.386719" width="40.2408" height="42.4096" rx="20.1204" fill="#292D34"/>
<rect x="639.019" y="339.664" width="40.2408" height="42.4096" rx="20.1204" fill="#292D34"/>
<rect x="634.645" y="504.591" width="55.1124" height="42.4096" rx="21.2048" fill="#292D34"/>
<rect x="267.229" y="127.616" width="356.044" height="42.4096" rx="21.2048" fill="#1E1E1E"/>
<rect x="267.229" y="212.436" width="356.044" height="42.4096" rx="21.2048" fill="#1E1E1E"/>
<rect x="460.56" y="297.254" width="225.698" height="42.4096" rx="21.2048" fill="#1E1E1E"/>
<rect x="460.56" y="382.073" width="225.698" height="42.4096" rx="21.2048" fill="#1E1E1E"/>
<rect x="522.671" y="42.7969" width="163.588" height="42.4096" rx="21.2048" fill="#1E1E1E"/>
<rect x="292.598" y="85.2061" width="356.044" height="42.4096" rx="21.2048" fill="#292D34"/>
<rect x="278.602" y="170.025" width="356.044" height="42.4096" rx="21.2048" fill="#292D34"/>
<rect x="296.098" y="254.845" width="393.66" height="42.4096" rx="21.2048" fill="#292D34"/>
<rect x="292.598" y="339.664" width="330.674" height="42.4096" rx="21.2048" fill="#292D34"/>
<rect x="295.223" y="504.591" width="330.674" height="42.4096" rx="21.2048" fill="#292D34"/>
<rect x="317.968" y="421.656" width="330.674" height="42.4096" rx="21.2048" fill="#292D34"/>
<rect x="535.793" y="462.181" width="187.207" height="42.4096" rx="21.2048" fill="#1E1E1E"/>
</svg>
