<svg width="471" height="542" viewBox="0 0 471 542" fill="none" xmlns="http://www.w3.org/2000/svg">
<path d="M251.568 67.4306C270.595 63.8128 289.862 60.8309 309.227 61.1619C328.592 61.493 348.178 65.2726 365.205 74.5041C384.789 85.1221 400.455 102.238 413.942 119.969C435.296 148.04 445.915 184.074 443.198 219.239C440.161 258.541 421.138 295.246 396.141 325.726C371.143 356.205 340.228 384.842 309.203 409.16C290.935 423.478 266.194 429.183 243.5 424.307C220.807 419.432 195.318 405.72 191.126 382.889C186.805 359.355 171.946 337.962 151.402 325.696C135.499 316.201 114.539 312.629 97.7226 304.866C66.8293 290.603 47.1561 257.511 43.5672 223.673C39.9782 189.834 50.7462 155.68 67.928 126.308C85.5272 96.2212 111.937 71.5965 145.259 61.3671C178.579 51.14 220.32 51.9857 251.568 67.4306Z" fill="#B9D6FF"/>
<path d="M397.9 142.283L391.024 154.192H404.774L397.9 142.283Z" stroke="#060305" stroke-width="1.19951" stroke-miterlimit="10" stroke-linecap="round" stroke-linejoin="round"/>
<path d="M54.7461 255.564L42.8386 248.688V262.439L54.7461 255.564Z" fill="#060305"/>
<path d="M427.54 353.479L434.415 341.57H420.665L427.54 353.479Z" fill="#89B8FA"/>
<path d="M416.669 182.75C416.669 181.696 415.815 180.841 414.76 180.841C413.706 180.841 412.852 181.695 412.852 182.75C412.852 183.805 413.706 184.659 414.76 184.659C415.814 184.66 416.669 183.805 416.669 182.75Z" fill="#060305"/>
<path d="M393.216 356.228C393.216 355.174 392.361 354.32 391.307 354.32C390.252 354.32 389.398 355.174 389.398 356.228C389.398 357.283 390.254 358.137 391.307 358.137C392.361 358.138 393.216 357.283 393.216 356.228Z" stroke="#060305" stroke-width="1.19951" stroke-miterlimit="10" stroke-linecap="round" stroke-linejoin="round"/>
<path d="M180.573 274.512C180.573 273.458 179.719 272.604 178.665 272.604C177.61 272.604 176.756 273.459 176.756 274.512C176.756 275.566 177.61 276.42 178.665 276.42C179.719 276.422 180.573 275.566 180.573 274.512Z" fill="#89B8FA"/>
<path d="M111.103 335.504C111.103 334.45 110.248 333.596 109.194 333.596C108.139 333.596 107.285 334.45 107.285 335.504C107.285 336.558 108.139 337.413 109.194 337.413C110.248 337.413 111.103 336.558 111.103 335.504Z" fill="#89B8FA"/>
<path d="M372.921 387.987C372.921 386.933 372.067 386.079 371.012 386.079C369.958 386.079 369.103 386.933 369.103 387.987C369.103 389.041 369.958 389.895 371.012 389.895C372.067 389.897 372.921 389.041 372.921 387.987Z" fill="#89B8FA"/>
<path d="M446.604 148.84C446.604 147.785 445.749 146.931 444.694 146.931C443.64 146.931 442.786 147.785 442.786 148.84C442.786 149.894 443.64 150.748 444.694 150.748C445.749 150.748 446.604 149.894 446.604 148.84Z" fill="#89B8FA"/>
<path d="M374.83 293.099C374.83 292.045 373.976 291.191 372.922 291.191C371.867 291.191 371.013 292.046 371.013 293.099C371.013 294.153 371.867 295.008 372.922 295.008C373.975 295.009 374.83 294.154 374.83 293.099Z" fill="#060305"/>
<path d="M160.127 213.538C160.127 212.484 159.272 211.63 158.218 211.63C157.163 211.63 156.309 212.485 156.309 213.538C156.309 214.593 157.165 215.448 158.218 215.448C159.272 215.447 160.127 214.593 160.127 213.538Z" stroke="#060305" stroke-width="1.19951" stroke-miterlimit="10" stroke-linecap="round" stroke-linejoin="round"/>
<path d="M4.81684 194.697C4.81684 193.643 3.96159 192.789 2.90842 192.789C1.85405 192.789 1 193.643 1 194.697C1 195.752 1.85405 196.606 2.90842 196.606C3.96159 196.607 4.81684 195.752 4.81684 194.697Z" stroke="#060305" stroke-width="1.19951" stroke-miterlimit="10" stroke-linecap="round" stroke-linejoin="round"/>
<path d="M163.311 288.54C163.311 287.486 162.456 286.632 161.403 286.632C160.348 286.632 159.493 287.487 159.493 288.54C159.493 289.595 160.348 290.45 161.403 290.45C162.456 290.449 163.311 289.595 163.311 288.54Z" fill="#060305"/>
<path d="M126.063 347.527C126.063 346.473 125.209 345.619 124.154 345.619C123.099 345.619 122.245 346.473 122.245 347.527C122.245 348.581 123.101 349.435 124.154 349.435C125.208 349.437 126.063 348.581 126.063 347.527Z" fill="#89B8FA"/>
<path d="M300.232 0H43.2312V168.661H300.232V0Z" fill="white"/>
<path d="M300.232 0H43.2314V23.7191H300.232V0Z" fill="#4894FF"/>
<path d="M56.3101 15.3962C58.2637 15.3962 59.8474 13.8125 59.8474 11.8589C59.8474 9.90526 58.2637 8.32153 56.3101 8.32153C54.3564 8.32153 52.7727 9.90526 52.7727 11.8589C52.7727 13.8125 54.3564 15.3962 56.3101 15.3962Z" fill="#89B8FA"/>
<path d="M71.25 15.3962C73.2036 15.3962 74.7873 13.8125 74.7873 11.8589C74.7873 9.90526 73.2036 8.32153 71.25 8.32153C69.2964 8.32153 67.7126 9.90526 67.7126 11.8589C67.7126 13.8125 69.2964 15.3962 71.25 15.3962Z" fill="#89B8FA"/>
<path d="M89.7273 11.8589C89.7273 9.90488 88.1439 8.32153 86.1899 8.32153C84.2359 8.32153 82.6526 9.90488 82.6526 11.8589C82.6526 13.8129 84.2359 15.3962 86.1899 15.3962C88.1427 15.3962 89.7273 13.8129 89.7273 11.8589Z" fill="#89B8FA"/>
<path d="M293.589 8.78564H97.6909" stroke="#060305" stroke-width="1.19951" stroke-miterlimit="10" stroke-linecap="round" stroke-linejoin="round"/>
<path d="M293.589 14.9282H97.6909" stroke="#060305" stroke-width="1.19951" stroke-miterlimit="10" stroke-linecap="round" stroke-linejoin="round"/>
<path d="M119.34 218.568L83.2173 238.676L47.0941 218.568C28.7932 208.381 17.4458 189.078 17.4458 168.134V82.5475L83.2173 57.7368L148.989 82.5475V168.132C148.989 189.079 137.641 208.381 119.34 218.568Z" fill="#4894FF"/>
<path d="M113.311 206.824L83.2166 223.575L53.1222 206.824C37.8752 198.336 28.4219 182.257 28.4219 164.806V90.9595L83.2166 70.2896L138.011 90.9595V164.806C138.011 182.257 128.559 198.337 113.311 206.824Z" fill="#89B8FA"/>
<path d="M119.319 213.014C134.416 205.854 144.721 189.575 144.733 172.866" stroke="#060305" stroke-width="1.19951" stroke-miterlimit="10" stroke-linecap="round" stroke-linejoin="round"/>
<path d="M22.8882 84.8321C39.5614 78.2552 56.2357 71.6794 72.9089 65.1025" stroke="white" stroke-width="1.19951" stroke-miterlimit="10" stroke-linecap="round" stroke-linejoin="round"/>
<path d="M83.2161 57.7368V238.676" stroke="#060305" stroke-width="1.19951" stroke-miterlimit="10" stroke-linecap="round" stroke-linejoin="round"/>
<path d="M93.5662 194.45C117.407 188.732 132.099 164.771 126.381 140.93C120.664 117.09 96.7022 102.398 72.8615 108.115C49.0208 113.833 34.329 137.794 40.0464 161.635C45.7639 185.476 69.7255 200.167 93.5662 194.45Z" fill="white"/>
<path d="M82.016 184.406L47.1606 143.2L59.2769 132.952L80.3007 157.813L111.886 108.9L125.216 117.504L82.016 184.406Z" fill="#0B5ED7"/>
<path d="M385.533 49.4956H246.666V80.3794H356.994L362.584 90.0594L368.172 80.3794H385.533V49.4956Z" fill="#89B8FA"/>
<path d="M264.731 72.7425L257.034 63.643L259.71 61.3808L264.352 66.8709L271.327 56.0693L274.271 57.9694L264.731 72.7425Z" fill="white"/>
<path d="M376.967 58.7949H282.879" stroke="#060305" stroke-width="1.19951" stroke-miterlimit="10" stroke-linecap="round" stroke-linejoin="round"/>
<path d="M376.967 64.9377H282.879" stroke="#060305" stroke-width="1.19951" stroke-miterlimit="10" stroke-linecap="round" stroke-linejoin="round"/>
<path d="M376.967 71.0806H282.879" stroke="#060305" stroke-width="1.19951" stroke-miterlimit="10" stroke-linecap="round" stroke-linejoin="round"/>
<path d="M318.791 101.039H457.658V131.923H347.33L341.74 141.603L336.152 131.923H318.791V101.039Z" fill="white"/>
<path d="M436.594 124.286L428.897 115.187L431.572 112.925L436.216 118.414L443.191 107.613L446.133 109.513L436.594 124.286Z" fill="#89B8FA"/>
<path d="M419.965 110.318H325.876" stroke="#060305" stroke-width="1.19951" stroke-miterlimit="10" stroke-linecap="round" stroke-linejoin="round"/>
<path d="M419.965 116.46H325.876" stroke="#060305" stroke-width="1.19951" stroke-miterlimit="10" stroke-linecap="round" stroke-linejoin="round"/>
<path d="M419.965 122.604H325.876" stroke="#060305" stroke-width="1.19951" stroke-miterlimit="10" stroke-linecap="round" stroke-linejoin="round"/>
<path d="M252.247 541.106C329.567 541.106 392.247 537.099 392.247 532.157C392.247 527.214 329.567 523.207 252.247 523.207C174.927 523.207 112.246 527.214 112.246 532.157C112.246 537.099 174.927 541.106 252.247 541.106Z" fill="#4894FF"/>
<path d="M346.008 523.28C338.799 515.771 338.798 503.881 343.284 494.489C323.021 494.964 304.068 496.397 283.805 496.872C284.154 507.956 284.504 519.04 284.854 530.124L355.073 532.161C355.073 527.363 348.569 525.948 346.008 523.28Z" fill="#060305"/>
<path d="M317.847 506.267C322.939 506.124 328.031 505.981 333.124 505.837" stroke="white" stroke-width="1.19951" stroke-miterlimit="10" stroke-linecap="round" stroke-linejoin="round"/>
<path d="M318.742 510.485C324.232 510.503 329.722 510.52 335.211 510.538" stroke="white" stroke-width="1.19951" stroke-miterlimit="10" stroke-linecap="round" stroke-linejoin="round"/>
<path d="M320.238 515.321C325.529 515.378 330.819 515.434 336.11 515.49" stroke="white" stroke-width="1.19951" stroke-miterlimit="10" stroke-linecap="round" stroke-linejoin="round"/>
<path d="M202.534 522.319C196.6 518.568 193.932 510.893 192.466 504.029C191.267 498.422 191.874 491.427 194.654 486.413C175.134 481.545 156.118 477.237 136.597 472.369C134.742 485.279 132.886 498.191 131.031 511.101C141.128 517.374 151.251 523.983 161.348 530.255L210.834 530.433C211.69 525.393 205.856 524.418 202.534 522.319Z" fill="#060305"/>
<path d="M168.719 498.645C173.807 498.541 178.896 498.436 183.984 498.332" stroke="white" stroke-width="1.19951" stroke-miterlimit="10" stroke-linecap="round" stroke-linejoin="round"/>
<path d="M167.819 503.21C173.71 503.346 179.601 503.482 185.492 503.618" stroke="white" stroke-width="1.19951" stroke-miterlimit="10" stroke-linecap="round" stroke-linejoin="round"/>
<path d="M169.615 508.05C175.904 508.225 182.193 508.399 188.482 508.574" stroke="white" stroke-width="1.19951" stroke-miterlimit="10" stroke-linecap="round" stroke-linejoin="round"/>
<path d="M339.608 246.072L218.353 255.316C207.868 290.35 197.383 325.384 186.898 360.418C168.042 391.248 143.462 433.33 132.297 474.702C154.805 481.733 177.263 488.158 199.77 495.189C214.436 464.342 229.693 433.563 244.358 402.717C254.713 380.939 265.046 359.811 275.231 337.953C277.813 356.235 279.172 374.768 281.755 393.049C280.818 430.915 279.741 464.09 278.477 499.873C301.531 500.236 325.326 498.983 348.38 499.346C348.541 462.063 348.55 424.853 348.712 387.57C348.917 340.47 342.529 293.08 339.608 246.072Z" fill="#89B8FA"/>
<path d="M275.042 338.661C277.424 332.004 279.805 325.347 282.186 318.689" stroke="#060305" stroke-width="1.19951" stroke-miterlimit="10" stroke-linecap="round" stroke-linejoin="round"/>
<path d="M223.353 272.063C214.823 301.425 206.294 330.787 197.763 360.148C199.136 359.93 199.229 361.829 199.285 363.218C199.341 364.607 198.466 365.893 197.367 366.743C195.87 367.902 193.898 368.427 192.023 368.167C172.874 398.049 156.304 429.083 143.948 462.354" stroke="#060305" stroke-width="1.19951" stroke-miterlimit="10" stroke-linecap="round" stroke-linejoin="round"/>
<path d="M137.446 461.033C159.821 468.467 182.197 475.903 204.572 483.338" stroke="#060305" stroke-width="1.19951" stroke-miterlimit="10" stroke-linecap="round" stroke-linejoin="round"/>
<path d="M280.721 486.344C302.774 485.647 324.827 484.951 346.88 484.254" stroke="#060305" stroke-width="1.19951" stroke-miterlimit="10" stroke-linecap="round" stroke-linejoin="round"/>
<path d="M279.125 327.803C282.626 347.929 286.129 368.056 289.63 388.182C287.971 391.062 287.609 395.441 290.031 397.716C288.84 427.062 287.399 456.137 286.208 485.483" stroke="#060305" stroke-width="1.19951" stroke-miterlimit="10" stroke-linecap="round" stroke-linejoin="round"/>
<path d="M377.567 176.961C388.813 184.547 399.44 207.221 394.801 221.786C390.161 236.35 378.482 241.891 367.852 244.436C357.222 246.982 331.769 236.619 331.769 236.619L323.034 205.509L351.429 178.718L377.567 176.961Z" fill="#C14F4F"/>
<path d="M359.474 189.502C353.226 182.848 349.06 174.641 342.381 168.42C330.017 156.903 312.881 152.245 295.984 152.024C287.649 151.915 279.457 151.525 271.122 151.416C270.832 153.462 269.379 155.275 267.492 156.118C265.606 156.961 263.349 156.858 261.489 155.959C259.628 155.059 258.217 153.329 257.433 151.417C250.099 154.268 242.765 157.118 235.431 159.969C218.599 166.511 203.58 178.015 194.839 193.816C204.493 197.655 213.634 202.179 223.288 206.018C221.528 222.78 219.589 239.653 217.829 256.415L338.302 260.012C337.117 242.058 334.322 224.112 329.61 206.747C339.553 200.928 349.529 195.319 359.474 189.502Z" fill="white"/>
<path d="M247.874 156.065C251.553 162.456 259.152 166.358 266.491 165.626C273.828 164.893 280.505 159.562 282.846 152.569" stroke="#060305" stroke-width="1.19951" stroke-miterlimit="10" stroke-linecap="round" stroke-linejoin="round"/>
<path d="M230.54 163.18C234.143 160.992 239.069 161.817 242.323 164.497C245.577 167.176 247.304 171.371 247.776 175.56C248.248 179.748 247.589 183.979 246.783 188.116C245.472 194.845 243.763 201.498 241.673 208.028" stroke="#060305" stroke-width="1.19951" stroke-miterlimit="10" stroke-linecap="round" stroke-linejoin="round"/>
<path d="M305.804 153.225C309.103 163.85 314.244 173.794 319.358 183.673C323.179 191.056 327.001 198.438 330.824 205.821" stroke="#060305" stroke-width="1.19951" stroke-miterlimit="10" stroke-linecap="round" stroke-linejoin="round"/>
<path d="M264.223 299.866C264.223 299.866 283.931 309.867 299.203 312.787L321.22 303.668L326.227 295.943L280.818 279.349L257.205 288.54L264.223 299.866Z" fill="#C14F4F"/>
<path d="M301.011 305.935C307.69 303.768 314.37 301.6 321.049 299.432" stroke="#060305" stroke-width="1.19951" stroke-miterlimit="10" stroke-linecap="round" stroke-linejoin="round"/>
<path d="M361.709 219.564L348.668 218.475C348.912 215.53 348.787 212.647 348.288 209.908C345.054 192.122 327.954 180.284 310.17 183.517C292.381 186.751 280.543 203.851 283.777 221.637C284.273 224.361 285.17 227.106 286.443 229.795L274.609 235.393C272.85 231.669 271.601 227.828 270.902 223.977C266.377 199.092 282.945 175.165 307.83 170.64C332.715 166.116 356.64 182.682 361.165 207.567C361.868 211.435 362.052 215.473 361.709 219.564Z" fill="#F6921E"/>
<path d="M276.573 199.086C280.642 187.244 291.008 177.778 303.169 174.797" stroke="white" stroke-width="1.19951" stroke-miterlimit="10" stroke-linecap="round" stroke-linejoin="round"/>
<path d="M264.414 230.832C264.023 235.57 265.737 249.007 266.627 253.907C272.103 284.026 300.958 304.002 331.077 298.527C361.195 293.051 381.173 264.195 375.697 234.077C374.806 229.177 371.68 215.997 369.647 211.7L264.414 230.832Z" fill="#FFCF8F"/>
<path d="M332.233 242.987C331.139 236.972 325.376 232.982 319.36 234.076C313.346 235.17 309.356 240.932 310.45 246.948C311.337 251.823 315.302 255.315 319.972 255.901L320.116 279.713L334.719 277.058L326.472 254.72C330.637 252.527 333.12 247.863 332.233 242.987Z" fill="#060305"/>
<path d="M308.073 245.18C307.836 242.266 308.653 239.28 310.337 236.891C312.021 234.503 314.561 232.73 317.384 231.975" stroke="#060305" stroke-width="1.19951" stroke-miterlimit="10" stroke-linecap="round" stroke-linejoin="round"/>
<path d="M348.952 287.059C362.793 277.849 371.717 261.654 372.109 245.033" stroke="#060305" stroke-width="1.19951" stroke-miterlimit="10" stroke-linecap="round" stroke-linejoin="round"/>
<path d="M251.518 124.532C252.211 124.698 252.904 124.863 253.597 125.029" stroke="#060305" stroke-width="1.19951" stroke-miterlimit="10" stroke-linecap="round" stroke-linejoin="round"/>
<path d="M265.14 119.107C260.194 119.053 255.306 121.729 252.686 125.924C250.067 130.119 249.808 135.686 252.027 140.106L275.617 134.259C276.25 131.574 276.809 128.881 277.441 126.194C274.914 121.943 270.085 119.161 265.14 119.107Z" fill="#060305"/>
<path d="M278.621 153.1C276.738 153.103 274.776 153.245 272.893 153.248C272.882 151.766 272.954 150.163 272.943 148.681C275.476 148.071 277.725 146.367 278.997 144.094C280.268 141.819 280.742 139.103 279.833 136.66C278.671 133.536 277.613 130.167 276.45 127.044C274.827 128.793 272.481 129.82 270.118 129.491C267.226 132.282 262.378 133.05 258.784 131.251C258.681 133.094 258.852 134.526 258.749 136.37C256.662 135.421 254.01 135.899 252.383 137.517C250.758 139.134 250.265 141.782 251.202 143.875C252.139 145.969 254.442 147.366 256.73 147.232C256.403 149.354 255.826 151.502 255.498 153.624C254.046 154.197 252.298 154.815 250.846 155.388C253.924 160.065 259.583 162.909 265.169 162.543C270.76 162.176 276.178 158.138 278.621 153.1Z" fill="#C14F4F"/>
<path d="M266.361 138.566C267.024 138.566 267.561 138.029 267.561 137.367C267.561 136.705 267.024 136.167 266.361 136.167C265.699 136.167 265.162 136.705 265.162 137.367C265.162 138.029 265.699 138.566 266.361 138.566Z" fill="#060305"/>
<path d="M276.255 135.258C276.917 135.258 277.454 134.721 277.454 134.059C277.454 133.396 276.917 132.859 276.255 132.859C275.592 132.859 275.055 133.396 275.055 134.059C275.055 134.721 275.592 135.258 276.255 135.258Z" fill="#060305"/>
<path d="M272.171 134.701C272.717 135.925 273.263 137.148 273.808 138.37C273.381 138.423 272.759 138.576 272.332 138.628" stroke="#060305" stroke-width="1.19951" stroke-miterlimit="10" stroke-linecap="round" stroke-linejoin="round"/>
<path d="M270.551 140.656C270.686 141.134 271.091 141.526 271.573 141.642C272.055 141.76 272.595 141.597 272.933 141.234" stroke="#060305" stroke-width="1.19951" stroke-miterlimit="10" stroke-linecap="round" stroke-linejoin="round"/>
<path d="M263.798 134.042C264.127 133.265 264.767 132.627 265.545 132.3C266.322 131.974 267.227 131.965 268.011 132.275" stroke="#060305" stroke-width="1.19951" stroke-miterlimit="10" stroke-linecap="round" stroke-linejoin="round"/>
<path d="M273.85 130.446C274.518 130.259 275.185 130.071 275.853 129.884" stroke="#060305" stroke-width="1.19951" stroke-miterlimit="10" stroke-linecap="round" stroke-linejoin="round"/>
<path d="M254.627 140.017C255.641 140.047 256.655 140.078 257.669 140.108" stroke="#060305" stroke-width="1.19951" stroke-miterlimit="10" stroke-linecap="round" stroke-linejoin="round"/>
<path d="M264.713 148.748C267.683 149.599 270.893 149.596 273.86 148.737" stroke="#060305" stroke-width="1.19951" stroke-miterlimit="10" stroke-linecap="round" stroke-linejoin="round"/>
<path d="M256.457 147.325C257.178 147.057 257.899 146.789 258.618 146.521" stroke="#060305" stroke-width="1.19951" stroke-miterlimit="10" stroke-linecap="round" stroke-linejoin="round"/>
<path d="M377.567 176.963C371.195 173.177 365.077 168.316 357.709 167.505C346.958 166.322 336.139 165.763 325.323 165.834C324.812 166.278 324.634 166.906 324.918 167.519C323.868 167.539 322.718 167.715 321.668 167.734C321.315 168.7 321.621 169.718 322.366 170.427C323.111 171.136 324.093 171.527 325.049 171.902C329.021 173.462 332.991 175.021 336.963 176.579C334.038 177.073 331.114 177.145 328.189 177.64C327.97 178.38 328.542 179.091 329.162 179.55C329.782 180.01 330.558 180.196 331.311 180.371C337.537 181.824 343.764 183.277 349.99 184.73C352.974 187.927 355.9 191.023 358.885 194.219C362.018 197.575 366.19 200.2 370.738 199.574C375.287 198.949 379.318 195.479 380.615 191.074C381.961 186.496 381.672 179.403 377.567 176.963Z" fill="#C14F4F"/>
<path d="M336.111 176.268C340.752 176.296 345.394 176.325 350.035 176.354" stroke="#060305" stroke-width="1.19951" stroke-miterlimit="10" stroke-linecap="round" stroke-linejoin="round"/>
<path d="M324.625 167.093C335.493 168.334 346.363 169.574 357.232 170.815" stroke="#060305" stroke-width="1.19951" stroke-miterlimit="10" stroke-linecap="round" stroke-linejoin="round"/>
<path d="M356.307 191.257C360.15 197.338 367.874 200.699 374.944 199.368" stroke="#060305" stroke-width="1.19951" stroke-miterlimit="10" stroke-linecap="round" stroke-linejoin="round"/>
<path d="M280.335 270.229C276.219 270.11 273.1 269.685 268.984 269.566C255.944 256.928 242.976 244.171 229.936 231.534C232.687 223.393 235.438 215.252 238.189 207.111L199.013 194.702C195.876 204.313 191.876 214.271 189.219 224.025C185.787 236.623 187.813 254.847 205.405 267.472C224.58 281.232 243.822 290.442 264.223 299.869L266.813 293.741C279.251 290.415 291.274 284.466 304.141 284.001C306.606 283.912 308.937 281.706 308.816 279.244C299.272 276.278 290.325 270.518 280.335 270.229Z" fill="#C14F4F"/>
<path d="M286.853 287.42C285.11 287.742 283.367 288.063 281.624 288.384" stroke="#060305" stroke-width="1.19951" stroke-miterlimit="10" stroke-linecap="round" stroke-linejoin="round"/>
<path d="M230.103 231.254C228.357 231.602 226.609 231.951 224.863 232.299" stroke="#060305" stroke-width="1.19951" stroke-miterlimit="10" stroke-linecap="round" stroke-linejoin="round"/>
<path d="M108.417 290.446C107.232 294.129 102.021 294.129 100.836 290.446C99.6511 286.764 94.4404 286.764 93.2553 290.446C92.0702 294.129 86.8595 294.129 85.6744 290.446C84.4893 286.764 79.2786 286.764 78.0935 290.446C76.9084 294.129 71.6977 294.129 70.5126 290.446C69.3275 286.764 64.1168 286.764 62.9317 290.446C61.7466 294.129 56.536 294.129 55.3508 290.446C54.1657 286.764 48.9551 286.764 47.7699 290.446C46.5848 294.129 41.3742 294.129 40.189 290.446C39.0039 286.764 33.7933 286.764 32.6082 290.446" stroke="#060305" stroke-width="1.19951" stroke-miterlimit="10" stroke-linecap="round" stroke-linejoin="round"/>
<path d="M469.954 263.115C468.769 266.798 463.558 266.798 462.373 263.115C461.188 259.433 455.978 259.433 454.792 263.115C453.607 266.798 448.397 266.798 447.212 263.115C446.026 259.433 440.816 259.433 439.631 263.115C438.446 266.798 433.235 266.798 432.05 263.115C430.865 259.433 425.654 259.433 424.469 263.115C423.284 266.798 418.073 266.798 416.888 263.115C415.703 259.433 410.492 259.433 409.307 263.115C408.122 266.798 402.911 266.798 401.726 263.115C400.541 259.433 395.33 259.433 394.145 263.115" stroke="#060305" stroke-width="1.19951" stroke-miterlimit="10" stroke-linecap="round" stroke-linejoin="round"/>
<path d="M252.246 98.6701C251.061 102.353 245.85 102.353 244.665 98.6701C243.48 94.9876 238.269 94.9876 237.084 98.6701C235.899 102.353 230.688 102.353 229.503 98.6701C228.318 94.9876 223.107 94.9876 221.922 98.6701C220.737 102.353 215.526 102.353 214.341 98.6701C213.156 94.9876 207.945 94.9876 206.76 98.6701C205.575 102.353 200.365 102.353 199.179 98.6701C197.994 94.9876 192.784 94.9876 191.599 98.6701C190.413 102.353 185.203 102.353 184.018 98.6701C182.833 94.9876 177.622 94.9876 176.437 98.6701" stroke="#060305" stroke-width="1.19951" stroke-miterlimit="10" stroke-linecap="round" stroke-linejoin="round"/>
</svg>
