<svg width="186" height="145" viewBox="0 0 186 145" fill="none" xmlns="http://www.w3.org/2000/svg">
<path fill-rule="evenodd" clip-rule="evenodd" d="M32.2695 145H113.442C131.033 145 145.396 130.644 145.396 113.062V31.9367C145.396 30.0968 145.234 28.2914 144.945 26.5285C160.435 14.036 174.809 7.06929 185.184 9.57431C138.889 -9.59355 81.6524 92.047 70.668 112.072L30.2689 51.92L67.9815 74.0281C90.7177 44.8658 115.31 22.6322 136.541 9.9124C130.707 3.81891 122.5 0 113.441 0H32.2695C14.6835 0 0.322754 14.3539 0.322754 31.9362V113.062C0.322296 130.644 14.6835 145 32.2695 145Z" fill="#54BA70"/>
</svg>
