<svg width="113" height="95" viewBox="0 0 113 95" fill="none" xmlns="http://www.w3.org/2000/svg">
<path d="M52.1538 56.1364V82.0455C52.1538 85.6439 50.8862 88.7027 48.351 91.2216C45.8157 93.7405 42.7372 95 39.1154 95H13.0385C9.41667 95 6.33814 93.7405 3.80288 91.2216C1.26763 88.7027 0 85.6439 0 82.0455V34.5455C0 29.8674 0.916767 25.4031 2.7503 21.1523C4.58383 16.9016 7.0625 13.2244 10.1863 10.1207C13.3101 7.01705 17.0111 4.55433 21.2894 2.7326C25.5676 0.910866 30.0609 0 34.7692 0H39.1154C40.2925 0 41.3111 0.42732 42.1713 1.28196C43.0314 2.1366 43.4615 3.14867 43.4615 4.31818V12.9545C43.4615 14.1241 43.0314 15.1361 42.1713 15.9908C41.3111 16.8454 40.2925 17.2727 39.1154 17.2727H34.7692C29.9704 17.2727 25.8732 18.9595 22.4778 22.3331C19.0823 25.7067 17.3846 29.7775 17.3846 34.5455V36.7045C17.3846 38.5038 18.0184 40.0331 19.2861 41.2926C20.5537 42.5521 22.0929 43.1818 23.9038 43.1818H39.1154C42.7372 43.1818 45.8157 44.4413 48.351 46.9602C50.8862 49.4792 52.1538 52.5379 52.1538 56.1364ZM113 56.1364V82.0455C113 85.6439 111.732 88.7027 109.197 91.2216C106.662 93.7405 103.583 95 99.9615 95H73.8846C70.2628 95 67.1843 93.7405 64.649 91.2216C62.1138 88.7027 60.8462 85.6439 60.8462 82.0455V34.5455C60.8462 29.8674 61.7629 25.4031 63.5965 21.1523C65.43 16.9016 67.9087 13.2244 71.0324 10.1207C74.1562 7.01705 77.8573 4.55433 82.1355 2.7326C86.4138 0.910866 90.9071 0 95.6154 0H99.9615C101.139 0 102.157 0.42732 103.017 1.28196C103.878 2.1366 104.308 3.14867 104.308 4.31818V12.9545C104.308 14.1241 103.878 15.1361 103.017 15.9908C102.157 16.8454 101.139 17.2727 99.9615 17.2727H95.6154C90.8165 17.2727 86.7193 18.9595 83.3239 22.3331C79.9285 25.7067 78.2308 29.7775 78.2308 34.5455V36.7045C78.2308 38.5038 78.8646 40.0331 80.1322 41.2926C81.3998 42.5521 82.9391 43.1818 84.75 43.1818H99.9615C103.583 43.1818 106.662 44.4413 109.197 46.9602C111.732 49.4792 113 52.5379 113 56.1364Z" fill="#89B8FA"/>
</svg>
